<?xml version="1.0" encoding="UTF-8"?>
<svg width="18px" height="18px" viewBox="0 0 18 18" version="1.1" xmlns="http://www.w3.org/2000/svg" xmlns:xlink="http://www.w3.org/1999/xlink">
    <!-- Generator: Sketch 56.3 (81716) - https://sketch.com -->
    <title>calendar</title>
    <desc>Created with Sketch.</desc>
    <g id="Page-1" stroke="none" stroke-width="1" fill-rule="evenodd">
        <g id="Artboard" transform="translate(-245.000000, -12.000000)" fill-rule="nonzero">
            <g id="calendar" transform="translate(245.000000, 12.000000)">
                <path d="M15.499679,1.50029627 L13.9993087,1.50029627 L13.9993087,0 L12.9993581,0 L12.9993581,1.50029627 L4.9997531,1.50029627 L4.9997531,0 L3.99980248,0 L3.99980248,1.50029627 L2.50032097,1.50029627 C1.12172238,1.50029627 0,2.62196326 0,4.00049378 L0,15.4998025 C0,16.878333 1.12172238,18 2.50032097,18 L15.499679,18 C16.8782776,18 18,16.878333 18,15.4998025 L18,6.49980249 L18,5.49990124 L18,3.99960498 C17.9991112,2.62107446 16.8773888,1.50029627 15.499679,1.50029627 Z M16.9991605,15.4989137 C16.9991605,16.3254987 16.3263049,16.9983212 15.499679,16.9983212 L2.50032097,16.9983212 C1.67280628,16.9983212 0.99995062,16.3254987 0.99995062,15.4989137 L0.99995062,6.49980249 L16.9991605,6.49980249 L16.9991605,15.4989137 Z M16.9991605,5.49990124 L0.99995062,5.49990124 L0.99995062,3.99960498 C0.99995062,3.17213115 1.67280628,2.49930871 2.50032097,2.49930871 L4.00069132,2.49930871 L4.00069132,3.49920995 L4.9997531,3.49920995 L4.9997531,2.50019751 L12.9993581,2.50019751 L12.9993581,3.50009876 L13.9993087,3.50009876 L13.9993087,2.50019751 L15.499679,2.50019751 C16.3263049,2.50019751 16.9991605,3.17213115 16.9991605,3.99960498 L16.9991605,5.49990124 Z" id="Shape"></path>
            </g>
        </g>
    </g>
</svg>