
<svg width="19px" height="20px" viewBox="0 0 19 20" version="1.1" xmlns="http://www.w3.org/2000/svg" xmlns:xlink="http://www.w3.org/1999/xlink">
    <g id="Page-1" stroke="none" stroke-width="1" fill-rule="evenodd">
        <g id="Artboard" transform="translate(-274.000000, -10.000000)" fill-rule="nonzero">
            <g id="new_event" transform="translate(274.000000, 10.000000)">
                <g id="Group">
                    <rect id="Rectangle" x="2.98" y="0" width="1" height="2"></rect>
                    <rect id="Rectangle" x="14.98" y="0" width="1" height="2"></rect>
                    <path d="M17.51,20.0000334 L1.51,20.0000334 C1.11044546,20.0026638 0.726340542,19.8458052 0.44286945,19.5642114 C0.159398357,19.2826176 -7.23981326e-06,18.8995634 -7.23981326e-06,18.5 L-7.23981326e-06,3.5 C-0.00122560229,3.10394781 0.15320088,2.72326858 0.43,2.44 C0.712258437,2.16044912 1.09274415,2.00251166 1.49,1.99996662 L17.49,1.99996662 C17.8895545,1.99733624 18.2736595,2.15419478 18.5571306,2.43578858 C18.8406016,2.71738238 19.0000072,3.10043658 19.0000072,3.5 L19.0000072,18.5 C19.0012256,18.8960522 18.8467991,19.2767314 18.57,19.56 C18.2877416,19.8395509 17.9072558,19.9974883 17.51,20.0000334 Z M1.49,2.99994841 C1.35441418,2.99803386 1.22407559,3.0523416 1.13,3.15 C1.04309917,3.24550406 0.996514647,3.37092393 1,3.5 L1,18.5 C1,18.7761424 1.22385763,19.0000516 1.5,19.0000516 L17.5,19.0000516 C17.6355858,19.0019661 17.7659244,18.9476584 17.86,18.85 C17.9505426,18.7560667 18.0007837,18.6304638 18.000009,18.5 L18.000009,3.5 C18.000009,3.22385763 17.7761424,2.99994841 17.5,2.99994841 L1.49,2.99994841 Z" id="Shape"></path>
                    <rect id="Rectangle" x="0.48" y="5" width="17.99" height="1"></rect>
                    <rect id="Rectangle" x="9" y="9" width="1" height="7"></rect>
                    <rect id="Rectangle" x="6" y="12" width="7" height="1"></rect>
                </g>
            </g>
        </g>
    </g>
</svg>