<?xml version="1.0" encoding="UTF-8"?>
<svg width="18px" height="19px" viewBox="0 0 18 19" version="1.1" xmlns="http://www.w3.org/2000/svg" xmlns:xlink="http://www.w3.org/1999/xlink">
    <!-- Generator: Sketch 56.3 (81716) - https://sketch.com -->
    <title>tag</title>
    <desc>Created with Sketch.</desc>
    <g id="Page-1" stroke="none" stroke-width="1" fill-rule="evenodd">
        <g id="Artboard" transform="translate(-174.000000, -12.000000)" fill-rule="nonzero">
            <g id="tag" transform="translate(174.000000, 12.000000)">
                <path d="M17.9022652,1.61103634 C17.8780402,0.741588156 17.4419904,0.179004038 16.6910158,0.102288022 C16.6667908,0.102288022 16.6667908,0.102288022 16.6425659,0.102288022 L11.7491185,0 L11.7006686,0 C10.852794,0 10.2713944,0.33243607 9.93224454,0.639300135 C9.93224454,0.639300135 9.90801956,0.66487214 9.90801956,0.66487214 L0.3633748,10.7658143 C-0.121124933,11.2772544 -0.121124933,12.1467026 0.3633748,12.6581427 L6.0077967,18.6164199 C6.25004657,18.87214 6.56497139,19 6.90412121,19 L6.90412121,19 C7.24327102,19 7.55819585,18.87214 7.80044572,18.6164199 L12.5000931,13.6810229 C12.5485431,13.6298789 12.5969931,13.5787349 12.6454431,13.5020188 L17.2239655,8.66890983 C17.5146654,8.31090175 18.0233901,7.54374159 17.9991651,6.49528937 L17.9022652,1.61103634 Z M16.5698909,8.00403769 L11.9671434,12.8627187 C11.9429184,12.8882907 11.9186935,12.9138627 11.9186935,12.9394347 C11.8944685,12.9650067 11.8944685,12.9905787 11.8702435,13.0161507 L7.17059606,17.9515478 C7.02524614,18.1049798 6.78299627,18.1049798 6.63764635,17.9515478 L0.993224454,11.9932705 C0.847874534,11.8398385 0.847874534,11.5841184 0.993224454,11.4306864 L10.5378692,1.35531629 C10.7558941,1.17631225 11.1434939,0.946164199 11.7006686,0.946164199 L16.6183409,1.04845222 C16.8121408,1.07402423 16.9817157,1.17631225 17.0059407,1.63660834 L17.1028406,6.52086137 C17.1028406,7.23687752 16.7636908,7.77388964 16.5698909,8.00403769 Z M13.8566924,2.55720054 C12.9119179,2.55720054 12.1609433,3.34993271 12.1609433,4.34724092 C12.1609433,5.34454913 12.9119179,6.13728129 13.8566924,6.13728129 C14.8014669,6.13728129 15.5524415,5.34454913 15.5524415,4.34724092 C15.5524415,3.34993271 14.8014669,2.55720054 13.8566924,2.55720054 Z M13.8566924,5.19111709 C13.4206426,5.19111709 13.0572678,4.80753701 13.0572678,4.34724092 C13.0572678,3.88694482 13.4206426,3.50336474 13.8566924,3.50336474 C14.2927421,3.50336474 14.6561169,3.88694482 14.6561169,4.34724092 C14.6561169,4.80753701 14.2927421,5.19111709 13.8566924,5.19111709 Z M10.6589941,9.84522207 C10.8285691,10.0242261 10.8285691,10.3310902 10.6589941,10.5100942 L6.90412121,14.473755 C6.80722126,14.5760431 6.71032131,14.6016151 6.58919638,14.6016151 C6.46807145,14.6016151 6.3711715,14.5504711 6.27427155,14.473755 C6.10469665,14.294751 6.10469665,13.9878869 6.27427155,13.8088829 L10.0291445,9.84522207 C10.1987194,9.66621803 10.4894192,9.66621803 10.6589941,9.84522207 Z M10.1744944,7.08344549 L5.03879723,12.5047106 C4.94189729,12.6069987 4.84499734,12.6325707 4.72387241,12.6325707 C4.60274747,12.6325707 4.50584753,12.5814266 4.40894758,12.5047106 C4.23937267,12.3257066 4.23937267,12.0188425 4.40894758,11.8398385 L9.54464476,6.41857335 C9.71421966,6.23956931 10.0049195,6.23956931 10.1744944,6.41857335 C10.3440693,6.59757739 10.3440693,6.87886945 10.1744944,7.08344549 Z" id="Shape"></path>
            </g>
        </g>
    </g>
</svg>