<?xml version="1.0" encoding="UTF-8"?>
<svg width="31px" height="18px" viewBox="0 0 31 18" version="1.1" xmlns="http://www.w3.org/2000/svg" xmlns:xlink="http://www.w3.org/1999/xlink">
    <!-- Generator: Sketch 56.3 (81716) - https://sketch.com -->
    <title>ticket</title>
    <desc>Created with Sketch.</desc>
    <g id="Page-1" stroke="none" stroke-width="1" fill-rule="evenodd">
        <g id="Artboard" transform="translate(-203.000000, -12.000000)" fill="inherit" fill-rule="nonzero">
            <g id="ticket" transform="translate(203.000000, 12.000000)">
                <g id="Group" transform="translate(0.842975, 0.226663)">
                    <path d="M0,0.128697934 L0,0.839441736 L0,4.74851843 L0,5.45926223 L0.710743802,5.45926223 C2.48554215,5.45926223 3.90909091,6.88288207 3.90909091,8.65760579 C3.90909091,10.4324752 2.48554215,11.8559529 0.710743802,11.8559529 L0,11.8559529 L0,12.5666967 L0,16.4757876 L0,17.1865669 L0.710743802,17.1865669 L29.1404959,17.1865669 L29.8512397,17.1865669 L29.8512397,16.4757876 L29.8512397,12.5666967 L29.8512397,11.8559529 L29.1404959,11.8559529 C27.3656975,11.8559529 25.9421488,10.4324752 25.9421488,8.65760579 C25.9421488,6.88288207 27.3656975,5.45926223 29.1404959,5.45926223 L29.8512397,5.45926223 L29.8512397,4.74851843 L29.8512397,0.839441736 L29.8512397,0.128697934 L29.1404959,0.128697934 L0.710743802,0.128697934 L0,0.128697934 Z M1.4214876,1.55018554 L19.5454545,1.55018554 L19.5454545,15.7650438 L1.4214876,15.7650438 L1.4214876,13.1997207 C3.62866694,12.8549744 5.33057851,10.9584256 5.33057851,8.65760579 C5.33057851,6.3567895 3.62880909,4.44908207 1.4214876,4.10442107 L1.4214876,1.55018554 Z M20.9669421,1.55018554 L28.4297521,1.55018554 L28.4297521,4.10442107 C26.2224306,4.44908207 24.5206612,6.3567895 24.5206612,8.65760579 C24.5206612,10.9584256 26.2225727,12.8549744 28.4297521,13.1997207 L28.4297521,15.7650438 L20.9669421,15.7650438 L20.9669421,1.55018554 Z" id="Shape"></path>
                </g>
            </g>
        </g>
    </g>
</svg>